<?xml version="1.0" standalone="no"?><!DOCTYPE svg PUBLIC "-//W3C//DTD SVG 1.1//EN" "http://www.w3.org/Graphics/SVG/1.1/DTD/svg11.dtd"><svg class="icon" width="200px" height="200.00px" viewBox="0 0 1024 1024" version="1.1" xmlns="http://www.w3.org/2000/svg"><path d="M702.008889 192.739556C694.385778 91.306667 611.214222 11.377778 509.724444 11.377778 408.177778 11.377778 325.006222 91.306667 317.44 192.739556H259.640889l-8.988445 0.341333A104.846222 104.846222 0 0 0 156.103111 290.702222l-42.040889 574.179556-0.284444 7.907555c0 58.424889 46.478222 105.756444 103.822222 105.756445h648.135111l6.030222-0.398222a45.056 45.056 0 0 0 38.456889-44.942223 44.942222 44.942222 0 0 0-44.487111-45.340444H217.6l-3.413333-0.398222a15.075556 15.075556 0 0 1-11.377778-14.677334l42.040889-575.374222 0.739555-3.754667a14.848 14.848 0 0 1 14.051556-10.24H316.871111v76.401778a44.487111 44.487111 0 0 0 88.974222 0V283.363556h207.701334v76.401777a44.487111 44.487111 0 1 0 89.031111 0V283.363556h57.571555l3.754667 0.512c5.973333 1.592889 10.524444 6.826667 11.036444 13.368888l8.248889 102.855112 9.557334 133.973333 0.796444 6.144c4.551111 21.845333 24.291556 37.489778 46.762667 35.84a45.056 45.056 0 0 0 41.187555-48.526222l-9.500444-133.973334-8.305778-103.651555-1.137778-9.102222a104.448 104.448 0 0 0-102.4-88.064H702.008889z m-89.486222 0c-7.224889-51.313778-50.517333-90.680889-102.798223-90.680889-52.337778 0-95.573333 39.367111-102.798222 90.680889h205.596445z m237.511111 589.312a45.340444 45.340444 0 0 0 0-90.680889h-265.329778a45.340444 45.340444 0 1 0 0 90.680889h265.329778z" fill="#707070" /></svg>